<?xml version="1.0" standalone="no"?>
<!DOCTYPE svg PUBLIC "-//W3C//DTD SVG 20010904//EN"
 "http://www.w3.org/TR/2001/REC-SVG-20010904/DTD/svg10.dtd">
<svg version="1.0" xmlns="http://www.w3.org/2000/svg"
 width="308.000000pt" height="286.000000pt" viewBox="0 0 308.000000 286.000000"
 preserveAspectRatio="xMidYMid meet">

<g transform="translate(0.000000,286.000000) scale(0.100000,-0.100000)"
fill="#000000" stroke="none">
<path d="M1533 2572 c-7 -15 -15 -40 -19 -57 -4 -16 -10 -34 -14 -40 -4 -5
-10 -21 -13 -35 -3 -14 -57 -177 -120 -364 -73 -216 -123 -346 -136 -360 -21
-21 -29 -21 -497 -26 l-475 -5 156 -109 c86 -60 158 -113 161 -117 2 -4 -11
-16 -30 -27 -33 -19 -34 -23 -31 -69 7 -95 8 -204 1 -210 -11 -12 -16 3 -34
103 -14 76 -22 100 -35 102 -14 3 -55 -21 -100 -59 -5 -3 -10 -24 -13 -45 -7
-65 -34 -257 -39 -284 -3 -14 -7 -38 -11 -53 -7 -34 10 -57 43 -57 41 0 61 17
68 60 4 24 12 40 21 40 13 0 19 -15 26 -65 3 -18 12 -20 98 -22 104 -3 109 0
111 57 l0 35 15 -40 c8 -21 19 -42 24 -45 12 -7 258 -3 277 4 11 5 12 26 8 98
l-7 93 20 -24 c20 -25 42 -22 42 7 0 15 2 15 10 2 5 -8 10 -49 10 -91 0 -46 5
-80 13 -88 10 -10 7 -17 -15 -35 -34 -26 -35 -34 -5 -38 24 -3 27 -23 12 -85
-6 -26 -4 -33 8 -33 16 0 32 57 28 98 -2 19 2 22 33 22 19 0 37 -4 40 -9 3 -5
-1 -31 -9 -57 -8 -27 -15 -50 -15 -51 0 -2 23 -3 52 -3 50 0 51 0 33 20 -10
11 -20 38 -22 60 l-4 40 205 0 c223 -1 235 -4 217 -54 -9 -21 -7 -27 10 -37
27 -14 30 -9 36 46 l6 45 85 0 85 0 -7 -38 c-3 -20 -9 -47 -12 -60 -5 -17 -2
-22 13 -22 19 0 63 73 63 106 0 12 10 15 38 14 20 -1 74 -2 119 -1 l81 1 0 43
c1 99 0 96 22 60 19 -32 21 -33 92 -33 60 0 76 4 95 22 23 21 23 21 23 1 0
-28 17 -33 115 -33 70 0 86 3 94 18 9 16 11 16 23 1 8 -11 36 -19 74 -23 57
-6 64 -5 93 20 30 25 31 28 31 107 -1 56 -5 88 -15 101 -18 24 -19 37 -3 34 6
-2 15 12 19 31 11 53 -23 112 -93 161 -47 34 -61 39 -77 30 -28 -15 -31 -13
-31 18 0 24 -8 33 -50 56 l-51 28 36 26 c19 15 93 68 164 117 77 54 122 91
113 93 -19 3 -347 -103 -426 -137 l-50 -22 -53 22 -54 22 -33 -32 -33 -32 -18
42 c-11 23 -28 47 -40 54 -17 12 -206 53 -318 70 -45 7 -42 17 13 35 22 7 39
18 37 24 -2 6 -68 202 -147 436 -78 234 -143 426 -144 427 -1 1 -7 -10 -13
-25z m12 -1062 l0 -155 38 -3 37 -3 0 155 0 156 35 0 35 0 1 -182 c2 -220 1
-273 -7 -445 l-6 -133 -29 0 -29 0 0 155 0 155 -40 0 -41 0 2 -152 1 -153 -31
-3 -30 -3 -4 188 c-3 103 -5 193 -4 198 0 6 0 91 1 190 1 107 5 183 11 188 6
4 21 6 35 5 l25 -3 0 -155z m288 135 l67 -7 0 -70 0 -69 -55 6 -56 7 3 -83 3
-84 43 -3 42 -3 0 -71 0 -71 -44 5 c-42 5 -44 4 -50 -25 -3 -16 -6 -54 -6 -83
l0 -54 49 0 c28 0 53 -5 56 -11 4 -5 4 -37 0 -70 l-7 -60 -80 3 -81 3 2 310
c1 367 6 448 30 441 9 -2 46 -7 84 -11z m-513 -64 l0 -70 -47 -3 -48 -3 -3
-84 -3 -84 46 5 45 6 0 -53 c0 -30 2 -60 5 -67 4 -11 -7 -17 -40 -24 -25 -5
-46 -12 -46 -16 1 -5 1 -39 1 -78 l0 -70 49 0 50 0 6 -43 c4 -24 5 -55 3 -68
-3 -23 -7 -24 -84 -27 l-81 -3 -7 62 c-3 34 -6 110 -6 168 0 98 -9 145 -26
129 -8 -8 -6 -220 2 -300 l7 -58 -35 0 -35 0 -6 122 c-4 66 -7 150 -7 186 0
36 -2 63 -5 60 -3 -2 -12 -40 -20 -84 -28 -140 -24 -138 -55 -36 -16 52 -31
97 -35 100 -3 4 -4 -23 -1 -58 3 -36 8 -116 11 -177 l6 -113 -34 0 -34 0 -7
143 c-9 184 -14 268 -21 398 l-6 107 32 11 c18 6 34 10 35 8 2 -2 16 -43 30
-93 15 -49 31 -93 34 -97 4 -4 18 45 31 109 23 114 25 118 53 126 17 4 31 6
33 4 2 -2 7 -79 11 -171 5 -128 10 -169 21 -173 11 -4 12 27 10 174 l-4 179
55 12 c30 6 70 12 88 12 l32 1 0 -69z m742 18 c30 -8 42 -19 59 -50 19 -38 20
-51 13 -167 -6 -110 -10 -132 -31 -163 l-24 -36 21 -131 c11 -72 20 -135 20
-141 0 -6 -16 -11 -35 -11 -19 0 -35 5 -35 10 0 11 -26 194 -35 248 -12 68
-23 27 -30 -114 l-7 -145 -32 3 c-24 2 -31 7 -29 23 1 11 2 88 2 170 0 83 1
157 1 165 1 8 5 78 10 155 4 77 8 156 9 176 l1 37 43 -10 c23 -5 59 -13 79
-19z m-462 -99 c0 -100 -2 -120 -15 -120 -12 0 -15 19 -15 113 0 63 3 117 7
120 18 19 23 -3 23 -113z m-150 -82 c-1 -67 -1 -130 0 -138 0 -8 3 -44 6 -80
l4 -65 -55 -37 c-46 -31 -65 -38 -106 -38 l-49 0 0 59 0 58 39 7 c48 7 52 17
43 111 l-7 70 -42 -2 -43 -2 0 38 c0 37 1 38 102 94 56 31 104 54 106 52 2 -2
3 -59 2 -127z m916 47 c20 -35 22 -48 16 -158 -4 -100 -3 -119 9 -115 10 3 16
37 22 134 5 71 10 131 12 133 2 2 37 -14 77 -36 l73 -39 3 -47 c2 -26 0 -47
-3 -47 -3 0 -24 9 -46 21 -23 11 -42 19 -44 17 -2 -2 -6 -28 -10 -58 l-7 -55
44 -15 c23 -8 43 -21 42 -27 -1 -7 -2 -28 -2 -47 -2 -34 -3 -34 -34 -25 -56
16 -58 14 -58 -51 0 -59 1 -60 28 -60 62 0 73 -9 70 -54 l-3 -41 -80 0 -80 0
4 144 c3 118 1 143 -10 139 -10 -3 -16 -35 -21 -112 -10 -145 -24 -166 -111
-166 -60 0 -63 1 -80 33 -16 29 -17 51 -12 173 15 368 16 384 42 414 l23 28
58 -23 c44 -17 62 -31 78 -60z m-1532 -12 c3 -42 6 -106 6 -143 0 -37 2 -69 5
-72 3 -3 8 -80 10 -171 l5 -167 -30 0 c-17 0 -30 5 -30 13 -1 6 -5 71 -10 142
-6 72 -12 193 -15 270 -3 77 -7 150 -10 163 -4 17 0 25 17 32 42 16 45 12 52
-67z m-92 -86 c4 -67 10 -180 13 -252 2 -71 7 -149 10 -171 6 -40 5 -42 -25
-46 -17 -3 -34 0 -39 6 -5 6 -24 61 -42 121 -32 107 -57 163 -46 100 3 -16 7
-75 9 -130 l3 -100 -30 0 -30 0 -7 90 c-3 50 -9 163 -13 251 -7 161 -7 162 16
178 13 9 28 16 35 16 6 0 26 -50 44 -110 32 -106 55 -152 45 -93 -2 15 -7 76
-10 135 l-6 107 28 15 c15 8 30 12 32 10 3 -3 8 -60 13 -127z m1146 113 c20 0
22 -4 22 -60 l0 -60 -34 0 c-59 0 -66 7 -66 64 0 59 6 70 35 62 11 -3 30 -6
43 -6z m-1240 -91 c-3 -8 -7 -3 -11 10 -4 17 -3 21 5 13 5 -5 8 -16 6 -23z
m-159 -274 c22 -116 41 -214 41 -218 0 -5 -15 -7 -32 -5 -31 3 -34 6 -42 51
-6 36 -12 47 -23 43 -8 -3 -23 -6 -33 -6 -13 0 -19 -11 -24 -45 -7 -43 -9 -45
-40 -45 l-32 0 22 143 c12 78 25 167 29 197 5 49 10 58 43 82 20 14 40 23 43
20 3 -4 25 -101 48 -217z m2211 184 c52 -36 80 -77 80 -120 0 -16 -2 -29 -5
-29 -14 0 -54 33 -50 40 3 5 -7 18 -22 30 l-28 22 -6 -24 c-16 -55 -11 -68 35
-89 60 -26 76 -54 76 -135 0 -88 -13 -104 -88 -104 -71 0 -102 25 -102 82 0
36 2 38 31 38 22 0 32 -5 36 -20 3 -11 8 -20 12 -20 3 0 16 -3 29 -6 20 -6 22
-3 22 39 0 45 -1 46 -39 57 -26 7 -48 22 -62 41 -20 28 -21 38 -15 122 9 119
20 128 96 76z m-145 -21 c20 -9 25 -18 25 -46 0 -29 -3 -33 -17 -27 -10 4 -31
12 -46 17 -19 7 -26 15 -23 25 3 8 6 21 6 29 0 17 20 18 55 2z m-415 -170 c-1
-103 -13 -103 -25 0 -5 44 -3 67 5 77 7 8 14 15 16 15 2 0 4 -42 4 -92z m570
49 c0 -5 -4 -5 -10 -2 -5 3 -10 14 -10 23 0 15 2 15 10 2 5 -8 10 -19 10 -23z
m-2181 -67 l-1 -25 -8 25 c-4 14 -8 32 -9 40 -1 13 0 13 9 0 5 -8 9 -26 9 -40z
m2077 -9 c12 -20 30 -33 53 -38 26 -6 37 -15 39 -31 4 -27 -4 -28 -26 -3 -25
28 -79 35 -94 12 -9 -15 -19 -18 -47 -14 -47 7 -54 15 -46 51 6 28 8 30 37 21
34 -9 48 -5 48 17 0 23 18 16 36 -15z"/>
<path d="M2000 1402 l0 -80 30 -4 c17 -3 32 -2 35 0 3 3 5 38 5 79 0 52 -4 73
-12 73 -7 0 -23 3 -35 6 -22 6 -23 4 -23 -74z m45 28 c0 -7 -6 -15 -12 -17 -8
-3 -13 4 -13 17 0 13 5 20 13 18 6 -3 12 -11 12 -18z"/>
<path d="M2245 1380 c-4 -21 -6 -69 -7 -106 0 -38 0 -112 -1 -164 l-2 -95 33
-3 32 -3 2 58 c1 32 3 81 4 108 1 28 5 88 9 135 l8 86 -36 11 -36 11 -6 -38z
m45 -114 c0 -19 -4 -38 -10 -41 -12 -7 -24 39 -16 60 10 27 26 16 26 -19z
m-10 -152 c0 -62 -3 -74 -16 -74 -14 0 -15 7 -10 38 3 20 6 56 6 80 0 26 4 41
10 37 6 -3 10 -40 10 -81z"/>
<path d="M400 1140 c0 -19 -3 -46 -7 -59 -5 -19 -2 -22 13 -19 15 3 18 11 16
43 -5 55 -21 81 -22 35z"/>
<path d="M912 724 c-35 -70 -35 -89 -3 -60 19 17 47 14 36 -3 -2 -5 2 -17 10
-27 13 -17 14 -10 15 69 0 108 -13 113 -58 21z m34 -21 c-10 -10 -19 5 -10 18
6 11 8 11 12 0 2 -7 1 -15 -2 -18z"/>
<path d="M1015 780 c3 -5 -1 -33 -10 -62 -8 -28 -15 -55 -15 -60 0 -12 78 -10
85 2 4 6 -7 10 -24 10 -17 0 -31 1 -31 3 0 1 7 24 15 51 19 63 19 66 -6 66
-11 0 -17 -4 -14 -10z"/>
<path d="M1114 782 c3 -5 -1 -30 -9 -57 -8 -26 -15 -54 -15 -62 0 -15 65 -18
75 -3 4 6 -5 10 -19 10 -30 0 -31 8 -11 73 13 45 13 47 -6 47 -11 0 -18 -4
-15 -8z"/>
<path d="M1225 766 c0 -13 8 -33 19 -45 25 -27 14 -51 -24 -51 -16 0 -30 -4
-30 -10 0 -5 20 -10 45 -10 40 0 45 3 51 26 5 18 1 31 -15 48 -29 31 -26 46 9
46 17 0 30 5 30 10 0 6 -19 10 -43 10 -39 0 -43 -2 -42 -24z"/>
<path d="M1330 775 c0 -8 6 -12 15 -9 12 5 11 -6 -5 -63 -24 -83 -24 -94 -2
-67 10 12 24 47 32 78 10 43 18 56 32 56 10 0 18 5 18 10 0 6 -20 10 -45 10
-33 0 -45 -4 -45 -15z"/>
<path d="M1415 728 c-39 -79 -39 -78 -22 -78 8 0 17 7 21 15 10 26 33 16 40
-17 3 -17 8 -29 10 -27 2 2 6 41 10 87 6 74 5 82 -11 81 -12 0 -29 -21 -48
-61z m31 -25 c-10 -10 -19 5 -10 18 6 11 8 11 12 0 2 -7 1 -15 -2 -18z"/>
<path d="M1514 778 c0 -7 -5 -37 -13 -66 -7 -29 -11 -56 -8 -59 11 -10 27 9
27 33 0 36 17 29 24 -10 7 -35 36 -72 36 -45 0 8 -4 29 -9 47 -6 20 -6 32 0
32 12 0 39 61 33 72 -9 14 -92 9 -90 -4z m56 -23 c0 -8 -7 -15 -15 -15 -8 0
-15 7 -15 15 0 8 7 15 15 15 8 0 15 -7 15 -15z"/>
<path d="M1680 733 c-7 -32 -15 -64 -17 -70 -4 -9 7 -13 36 -13 34 0 43 4 50
23 11 29 5 34 -17 14 -16 -15 -42 -23 -42 -14 0 2 7 24 16 50 16 48 37 60 49
30 6 -16 8 -15 20 7 16 29 21 7 6 -32 -4 -13 -11 -35 -15 -50 -6 -27 -5 -28
33 -28 22 0 43 5 46 10 4 6 -7 10 -24 10 -17 0 -31 1 -31 3 0 1 7 24 15 51 8
27 15 53 15 58 0 4 -29 8 -63 8 l-64 0 -13 -57z"/>
<path d="M1892 724 c-35 -69 -36 -90 -3 -60 19 17 47 14 36 -3 -2 -5 2 -17 10
-27 12 -17 14 -9 17 69 4 110 -12 116 -60 21z m34 -21 c-10 -10 -19 5 -10 18
6 11 8 11 12 0 2 -7 1 -15 -2 -18z"/>
<path d="M2000 769 c0 -11 9 -34 21 -50 24 -35 18 -49 -22 -49 -16 0 -29 -4
-29 -10 0 -5 18 -10 40 -10 33 0 42 4 52 25 10 21 8 29 -10 48 -29 30 -28 47
2 47 14 0 28 5 31 10 4 6 -12 10 -39 10 -40 0 -46 -3 -46 -21z"/>
<path d="M2112 785 c3 -3 -3 -35 -13 -70 -15 -56 -16 -65 -3 -65 8 0 17 13 21
30 4 20 11 30 24 30 15 0 17 -5 12 -31 -4 -24 -3 -31 7 -27 10 3 44 98 50 136
0 1 -6 2 -14 2 -8 0 -17 -11 -20 -25 -4 -16 -13 -25 -26 -25 -17 0 -18 4 -10
25 8 22 7 25 -12 25 -12 0 -19 -2 -16 -5z"/>
<path d="M1971 738 c-1 -46 0 -48 26 -48 l26 0 -20 23 c-12 12 -23 33 -26 47
-2 14 -5 5 -6 -22z"/>
<path d="M1299 717 l16 -34 7 26 c7 25 -3 41 -28 41 -8 0 -6 -12 5 -33z"/>
<path d="M2060 735 c12 -15 30 -12 30 6 0 5 -10 9 -21 9 -18 0 -19 -2 -9 -15z"/>
<path d="M1726 725 c-3 -8 -1 -15 4 -15 13 0 22 18 11 24 -5 3 -11 -1 -15 -9z"/>
<path d="M1293 650 c-11 -17 -27 -19 -155 -19 -116 -1 -144 -3 -150 -16 -12
-21 -33 -19 -49 5 -10 13 -21 18 -35 14 -16 -4 -28 -26 -49 -92 -16 -48 -32
-94 -36 -102 -10 -19 -69 -202 -69 -213 0 -4 24 10 53 31 28 21 70 51 92 65
22 14 121 84 219 154 144 102 181 134 188 157 9 36 6 41 -9 16z"/>
<path d="M1896 641 c-4 -6 -35 -11 -73 -11 l-66 0 81 -57 c468 -331 491 -347
496 -342 2 2 -27 96 -65 209 -38 113 -69 207 -69 209 0 2 -6 -1 -12 -6 -7 -6
-58 -11 -113 -11 -77 -1 -101 -5 -108 -17 -12 -22 -30 -18 -48 11 -10 17 -19
22 -23 15z"/>
</g>
</svg>
